<svg width="22" height="27" viewBox="0 0 22 27" fill="none" xmlns="http://www.w3.org/2000/svg">
<path fill-rule="evenodd" clip-rule="evenodd" d="M10.9318 0C7.06761 0 3.93242 3.07852 3.93242 6.87539V10.5575H2.90796C1.31313 10.5575 0 11.8426 0 13.4113V24.1462C0 25.7149 1.31313 27 2.90796 27H19.0983C20.6932 27 22 25.7149 22 24.1462V13.4113C22 11.8426 20.6932 10.5575 19.0983 10.5575H17.9367V6.87539C17.9367 3.0783 14.7966 0 10.9321 0H10.9318ZM10.9318 1.58824C13.9319 1.58824 16.3222 3.93271 16.3222 6.87567V10.5578H5.54616V6.87567C5.54616 3.93271 7.93177 1.58824 10.9318 1.58824ZM2.90756 12.1461H19.0979C19.8284 12.1461 20.3856 12.6971 20.3856 13.4117V24.1465C20.3856 24.8611 19.8284 25.4121 19.0979 25.4121H2.90756C2.17712 25.4121 1.61356 24.861 1.61356 24.1465V13.4117C1.61356 12.6971 2.17714 12.1461 2.90756 12.1461ZM11.0027 14.9597C9.45904 14.9597 8.18458 16.208 8.18458 17.7267C8.18458 18.969 9.03728 20.0259 10.1926 20.3696V21.8074C10.1935 22.0181 10.2793 22.2198 10.4313 22.368C10.583 22.5165 10.7886 22.5993 11.0027 22.5984C11.4458 22.5967 11.8047 22.2435 11.8065 21.8074V20.3712C12.9629 20.0291 13.8145 18.9708 13.8145 17.7267C13.8145 16.2081 12.5464 14.9597 11.0027 14.9597L11.0027 14.9597ZM11.0027 16.5479C11.6762 16.5479 12.2006 17.0681 12.2006 17.7267C12.2006 18.3852 11.6762 18.8992 11.0027 18.8992C10.3293 18.8992 9.79855 18.3852 9.79855 17.7267C9.79855 17.0681 10.3293 16.5479 11.0027 16.5479Z" fill="black"/>
</svg>
