<svg width="20" height="16" viewBox="0 0 20 16" fill="none" xmlns="http://www.w3.org/2000/svg">
<path d="M19.9564 3.60705L17.6302 11.0648C17.4563 11.596 16.9999 11.9499 16.4564 11.9499H7.47815C6.95637 11.9499 6.45641 11.618 6.28245 11.1312L2.84779 1.77023H0.869488C0.391227 1.77023 0 1.37197 0 0.885115C0 0.398258 0.391227 0 0.869488 0H3.45648C3.82603 0 4.15221 0.243436 4.28261 0.597546L7.82597 10.1798H16.0868L17.9347 4.20471L7.69561 4.20456C7.21735 4.20456 6.82613 3.8063 6.82613 3.31944C6.82613 2.83258 7.21735 2.43433 7.69561 2.43433H19.1304C19.4131 2.43433 19.6739 2.58931 19.8261 2.81051C20.0001 3.03172 20.0434 3.34155 19.9565 3.60719L19.9564 3.60705ZM7.91293 13.1229C7.54338 13.1229 7.17384 13.2779 6.91285 13.5434C6.65203 13.8089 6.49977 14.1851 6.49977 14.5614C6.49977 14.9376 6.65202 15.3138 6.91285 15.5795C7.17367 15.845 7.54321 16 7.91293 16C8.28247 16 8.65202 15.845 8.91301 15.5795C9.17383 15.314 9.32609 14.9378 9.32609 14.5614C9.32609 14.1853 9.17384 13.8091 8.91301 13.5434C8.65218 13.2779 8.28265 13.1229 7.91293 13.1229ZM15.7173 13.1229C15.3477 13.1229 14.9782 13.2779 14.7172 13.5434C14.4564 13.8089 14.3041 14.1851 14.3041 14.5614C14.3041 14.9376 14.4564 15.3138 14.7172 15.5795C14.978 15.845 15.3476 16 15.7173 16C16.0868 16 16.4564 15.845 16.7174 15.5795C16.9782 15.314 17.1304 14.9378 17.1304 14.5614C17.1304 14.1853 16.9782 13.8091 16.7174 13.5434C16.4564 13.2779 16.0868 13.1229 15.7173 13.1229Z" fill="black"/>
</svg>
