<svg width="19" height="15" viewBox="0 0 19 15" fill="none" xmlns="http://www.w3.org/2000/svg">
<path d="M8.78222 11.3235C8.78222 11.4395 8.73834 11.5509 8.66014 11.6329C8.5821 11.7149 8.47607 11.7611 8.36563 11.7611H7.59428C7.36794 11.7558 7.1871 11.5615 7.1871 11.3237C7.1871 11.0857 7.36793 10.8915 7.59428 10.8861H8.36502C8.47561 10.8858 8.58164 10.9319 8.65998 11.0139C8.73818 11.0959 8.78222 11.2073 8.78222 11.3235ZM19 2.43039V12.5696C18.9993 13.2141 18.7554 13.8317 18.3219 14.2873C17.8882 14.743 17.3003 14.9992 16.687 15H2.31299C1.69963 14.9992 1.1118 14.743 0.678119 14.2873C0.244587 13.8317 0.00071627 13.214 0 12.5696V2.43039C0.000736288 1.78595 0.244599 1.16832 0.678119 0.712652C1.1118 0.256986 1.69967 0.000752579 2.31299 0H16.687C17.3004 0.000773611 17.8882 0.256998 18.3219 0.712652C18.7554 1.16832 18.9993 1.78599 19 2.43039ZM0.832758 5.24527H18.1676V3.75141H0.832758V5.24527ZM0.832758 2.43023V2.87584L18.1676 2.87599V2.43039C18.1672 2.01806 18.0111 1.62256 17.7335 1.33107C17.456 1.03941 17.0798 0.875404 16.6872 0.874928H2.31317C1.92058 0.875392 1.54432 1.0394 1.26689 1.33107C0.989308 1.62257 0.83321 2.01806 0.832758 2.43039V2.43023ZM18.1676 12.5698V6.12025H0.832758V12.5698C0.8332 12.9822 0.989293 13.3777 1.26689 13.6692C1.54433 13.9608 1.92058 14.1248 2.31317 14.1253H16.6872C17.0798 14.1248 17.4561 13.9608 17.7335 13.6692C18.0111 13.3777 18.1672 12.9822 18.1676 12.5698ZM6.03212 8.41482V11.5574C6.03212 11.7991 5.84569 11.995 5.61567 11.995H2.62468C2.51408 11.995 2.4082 11.9489 2.33016 11.8669C2.25211 11.7847 2.20823 11.6735 2.20823 11.5574V8.41482C2.20823 8.29878 2.25211 8.18753 2.33016 8.10537C2.4082 8.02337 2.51423 7.97726 2.62468 7.97742H5.61567C5.72611 7.97726 5.83199 8.02337 5.91019 8.10537C5.98823 8.18738 6.03212 8.29878 6.03212 8.41482ZM5.19937 8.85329H3.04011V11.12H5.19937V8.85329ZM11.0683 10.8873H10.2981C10.0717 10.8927 9.89089 11.0871 9.89089 11.3249C9.89089 11.5627 10.0717 11.757 10.2981 11.7624H11.0688C11.2952 11.757 11.476 11.5627 11.476 11.3249C11.476 11.0871 11.2952 10.8927 11.0688 10.8873H11.0683ZM13.7719 10.8873H13.0018C12.8897 10.8847 12.7813 10.9296 12.7012 11.0119C12.6211 11.0943 12.5759 11.2071 12.5759 11.3249C12.5759 11.4426 12.6211 11.5554 12.7012 11.6377C12.7813 11.72 12.8897 11.7651 13.0018 11.7624H13.7725C13.9989 11.757 14.1797 11.5627 14.1797 11.3249C14.1797 11.0871 13.9989 10.8927 13.7725 10.8873L13.7719 10.8873ZM16.4756 10.8873H15.7053C15.479 10.8927 15.2981 11.0871 15.2981 11.3249C15.2981 11.5627 15.479 11.757 15.7053 11.7624H16.4764H16.4762C16.7025 11.757 16.8834 11.5627 16.8834 11.3249C16.8834 11.0871 16.7026 10.8927 16.4762 10.8873H16.4756Z" fill="black"/>
</svg>
