<svg width="27" height="27" viewBox="0 0 27 27" fill="none" xmlns="http://www.w3.org/2000/svg">
<path d="M25.8228 6.89707C25.7102 6.78396 25.5559 6.72111 25.3955 6.72331C25.3538 6.72351 23.9939 6.72949 21.9949 6.73767V1.60335C21.9949 1.44534 21.9317 1.29372 21.8188 1.182C21.706 1.07028 21.5529 1.00743 21.3933 1.00763H4.95929C3.92113 0.941394 2.90251 1.30868 2.15023 2.0203C1.39815 2.73194 0.98111 3.72285 1.00066 4.75288V18.9265C1.00066 21.9759 1.63829 24.0895 2.89627 25.209C3.41605 25.6982 4.10025 25.9799 4.81705 26C4.86177 26 4.89763 25.9986 4.92342 25.9968H25.3984C25.558 25.9968 25.7111 25.934 25.8239 25.8222C25.9367 25.7105 26.0002 25.5589 26 25.4009V7.31966C26 7.16106 25.9361 7.00924 25.8227 6.89752L25.8228 6.89707ZM4.95946 2.19921H20.7916V6.74248C16.4748 6.75943 10.2135 6.78178 6.96266 6.78178C2.42137 6.78178 2.21208 4.83525 2.2046 4.74286C2.19372 4.03223 2.48706 3.35011 3.01186 2.86553C3.5369 2.38094 4.24442 2.13879 4.95946 2.19921ZM24.7965 24.805L4.84703 24.8074V24.8072C4.40058 24.796 3.97669 24.6108 3.66703 24.292C2.99959 23.675 2.20398 22.2436 2.20398 18.9263V6.77669C3.05194 7.42266 4.4975 7.97373 6.96245 7.97373C11.5547 7.97373 22.1535 7.92924 24.7968 7.91787L24.7965 24.805Z" fill="black" stroke="black"/>
</svg>
