<svg width="31" height="29" viewBox="0 0 31 29" fill="none" xmlns="http://www.w3.org/2000/svg">
<path d="M15.5 2.32383C15.6442 2.32281 15.7829 2.38064 15.8846 2.48361L28.5597 15.1583C28.715 15.314 28.7616 15.5484 28.6771 15.7523C28.5931 15.9557 28.3952 16.0886 28.175 16.0891H25.3672V26.1313C25.3692 26.2749 25.3136 26.4138 25.2123 26.5163C25.1116 26.6188 24.974 26.6766 24.8302 26.6766H19.1641C18.8635 26.6766 18.6195 26.4321 18.6195 26.1313V19.9573C18.6195 19.8147 18.5634 19.6778 18.4627 19.5768C18.3619 19.4759 18.2253 19.4191 18.0831 19.4191H12.9169C12.6203 19.4191 12.3805 19.66 12.3805 19.9573V26.1313C12.3805 26.4321 12.1365 26.6766 11.8359 26.6766H6.16975C6.02601 26.6766 5.88836 26.6188 5.78765 26.5163C5.68643 26.4138 5.63076 26.2749 5.63279 26.1313V16.0891H2.85387C2.62865 16.1013 2.41963 15.9729 2.32753 15.766C2.23593 15.5595 2.28097 15.3176 2.44039 15.1583L15.1154 2.48361C15.2172 2.38064 15.3558 2.32281 15.5001 2.32383M15.5001 1C15.0077 1.00051 14.535 1.1963 14.1867 1.54578L1.53345 14.2276C1.18931 14.5786 0.997498 15.0524 1.00002 15.5445C1.00205 16.037 1.1979 16.5087 1.54508 16.8571C1.89226 17.2056 2.36293 17.4024 2.85389 17.4049H4.30483L4.30534 26.1314C4.30534 26.6254 4.50068 27.0997 4.84887 27.4502C5.19656 27.8001 5.66925 27.998 6.16274 28H11.8724C12.3593 27.9883 12.8224 27.7865 13.163 27.4375C13.503 27.088 13.6938 26.6193 13.6933 26.1313V20.7501H17.321V26.1313C17.321 26.6254 17.5169 27.0996 17.8645 27.4501C18.2127 27.8001 18.6854 27.9979 19.1784 27.9999H24.8451C25.3355 27.9943 25.8046 27.7945 26.1492 27.445C26.4944 27.095 26.6877 26.6228 26.6877 26.1313V17.4049H28.1386C28.6321 17.4044 29.1048 17.2076 29.4539 16.8581C29.8026 16.5086 29.999 16.0343 30 15.5403C30.001 15.0458 29.8067 14.571 29.459 14.22L16.8133 1.54582C16.4651 1.19634 15.9926 1.00051 15.5001 1Z" fill="black"/>
<path d="M15.5 2.32383C15.6442 2.32281 15.7829 2.38064 15.8846 2.48361L28.5597 15.1583C28.715 15.314 28.7616 15.5484 28.6771 15.7523C28.5931 15.9557 28.3952 16.0886 28.175 16.0891H25.3672V26.1313C25.3692 26.2749 25.3136 26.4138 25.2123 26.5163C25.1116 26.6188 24.974 26.6766 24.8303 26.6766H19.1641C18.8635 26.6766 18.6195 26.4321 18.6195 26.1313V19.9573C18.6195 19.8147 18.5634 19.6778 18.4627 19.5768C18.3619 19.4759 18.2253 19.4191 18.0831 19.4191H12.9169C12.6203 19.4191 12.3805 19.66 12.3805 19.9573V26.1313C12.3805 26.4321 12.1365 26.6766 11.8359 26.6766H6.16975C6.02601 26.6766 5.88836 26.6188 5.78765 26.5163C5.68643 26.4138 5.63076 26.2749 5.63279 26.1313V16.0891H2.85387C2.62865 16.1013 2.41963 15.9729 2.32753 15.766C2.23593 15.5595 2.28097 15.3176 2.44039 15.1583L15.1154 2.48361C15.2172 2.38064 15.3558 2.32281 15.5001 2.32383M15.5001 1.00051V1M15.5001 1C15.0077 1.00051 14.535 1.1963 14.1867 1.54578L1.53345 14.2276C1.18931 14.5786 0.997498 15.0524 1.00002 15.5445C1.00205 16.037 1.1979 16.5087 1.54508 16.8571C1.89226 17.2056 2.36293 17.4024 2.85389 17.4049H4.30483L4.30534 26.1314C4.30534 26.6254 4.50068 27.0997 4.84887 27.4502C5.19656 27.8001 5.66925 27.998 6.16274 28H11.8724C12.3593 27.9883 12.8224 27.7865 13.163 27.4375C13.503 27.088 13.6938 26.6193 13.6933 26.1313V20.7501H17.321V26.1313C17.321 26.6254 17.5169 27.0996 17.8645 27.4501C18.2127 27.8001 18.6854 27.9979 19.1784 27.9999H24.8451C25.3355 27.9943 25.8046 27.7945 26.1492 27.445C26.4944 27.095 26.6877 26.6228 26.6877 26.1313V17.4049H28.1386C28.6321 17.4044 29.1048 17.2076 29.4539 16.8581C29.8026 16.5086 29.999 16.0343 30 15.5403C30.001 15.0458 29.8067 14.571 29.459 14.22L16.8133 1.54582C16.4651 1.19634 15.9926 1.00051 15.5001 1Z" stroke="black"/>
</svg>
