<svg width="20" height="21" viewBox="0 0 20 21" fill="none" xmlns="http://www.w3.org/2000/svg">
<g clip-path="url(#clip0_143_241)">
<path d="M19.7589 10.3072C19.7589 4.85751 15.341 0.439697 9.89139 0.439697C4.44174 0.439697 0.0239258 4.85751 0.0239258 10.3072C0.0239258 15.2322 3.6323 19.3145 8.3496 20.0548V13.1595H5.84419V10.3072H8.3496V8.13324C8.3496 5.6602 9.82278 4.29418 12.0767 4.29418C13.1559 4.29418 14.2855 4.4869 14.2855 4.4869V6.91522H13.0413C11.8155 6.91522 11.4332 7.6759 11.4332 8.45701V10.3072H14.1699L13.7324 13.1595H11.4332V20.0548C16.1505 19.3145 19.7589 15.2322 19.7589 10.3072Z" fill="black"/>
</g>
<defs>
<clipPath id="clip0_143_241">
<rect width="19.7349" height="19.7349" fill="white" transform="translate(0.0239258 0.439697)"/>
</clipPath>
</defs>
</svg>
