<svg width="34" height="23" viewBox="0 0 34 23" fill="none" xmlns="http://www.w3.org/2000/svg">
<path d="M33.6235 10.517L31.7917 6.04677C31.436 5.17341 30.8356 4.42781 30.0672 3.90371C29.2988 3.37955 28.3962 3.10041 27.4733 3.10149H22.0282V2.53413C22.0268 1.85897 21.7634 1.21207 21.2958 0.736567C20.8282 0.260683 20.195 -0.00430532 19.5366 5.29209e-05H2.4817C1.82473 -0.00139905 1.19432 0.264679 0.729181 0.740191C0.263712 1.21535 0.00142268 1.86079 0 2.53413V16.9544C0.00141579 17.6292 0.26335 18.2754 0.728475 18.7524C1.19359 19.2293 1.82403 19.4979 2.48172 19.4994H3.49653C3.73299 20.8203 4.56164 21.9503 5.73331 22.55C6.90498 23.15 8.28371 23.15 9.45528 22.55C10.627 21.9503 11.4552 20.8203 11.6921 19.4994H23.9271C24.1632 20.8185 24.9907 21.9471 26.161 22.546C27.3312 23.1453 28.7077 23.1453 29.878 22.546C31.0483 21.947 31.8759 20.8185 32.1123 19.4994C32.6174 19.4831 33.0966 19.266 33.4492 18.8943C33.8014 18.5222 33.9989 18.0246 34 17.5062V12.3804C33.9979 11.74 33.8701 11.1062 33.6244 10.5175L33.6235 10.517ZM1.52179 16.954V2.53369C1.52321 2.27451 1.62515 2.02623 1.80497 1.84364C1.98479 1.66105 2.22797 1.55942 2.48105 1.56087H19.536C19.789 1.55942 20.0322 1.66105 20.212 1.84364C20.3919 2.02622 20.4938 2.27451 20.4952 2.53369V17.9371H11.7062C11.4693 16.6162 10.641 15.4862 9.46937 14.8862C8.2977 14.2865 6.91898 14.2865 5.7474 14.8862C4.57573 15.4862 3.74713 16.6162 3.51062 17.9371H2.49581C1.96238 17.94 1.5275 17.501 1.52179 16.954ZM7.61112 21.4293C6.9092 21.4293 6.23593 21.1436 5.73935 20.6351C5.24273 20.1265 4.96345 19.4365 4.96239 18.7166C4.96168 17.9964 5.23919 17.306 5.73475 16.796C6.22995 16.286 6.90252 15.9985 7.60443 15.9967C8.30636 15.9949 8.98035 16.2788 9.47838 16.7862C9.97642 17.2933 10.2575 17.9826 10.2603 18.7024C10.2617 19.4252 9.98243 20.1188 9.48475 20.6303C8.98672 21.1421 8.311 21.4292 7.60628 21.4292L7.61112 21.4293ZM28.0161 21.4293C27.0983 21.3883 26.2668 20.8623 25.819 20.0394C25.3713 19.2165 25.3713 18.2146 25.819 17.3918C26.2668 16.5692 27.0983 16.0432 28.0161 16.0019C28.7163 16.0073 29.386 16.2955 29.8797 16.8041C30.3739 17.3126 30.6524 18.0005 30.6549 18.7182C30.6535 19.4369 30.3746 20.1258 29.879 20.634C29.3835 21.1422 28.712 21.4283 28.0111 21.4293L28.0161 21.4293ZM32.4818 17.4952C32.4772 17.7108 32.3239 17.8923 32.1165 17.9271C31.88 16.6081 31.0528 15.4795 29.8826 14.8806C28.7124 14.2816 27.3355 14.2816 26.1653 14.8806C24.995 15.4795 24.1678 16.6081 23.9314 17.9271H22.0284V4.66286H27.4736C28.0962 4.66177 28.7051 4.85016 29.2236 5.20408C29.7418 5.558 30.1464 6.06111 30.386 6.65057L32.2231 11.1259C32.3894 11.5219 32.4758 11.9488 32.4768 12.38L32.4818 17.4952Z" fill="black"/>
</svg>
