<svg width="81" height="138" viewBox="0 0 81 138" fill="none" xmlns="http://www.w3.org/2000/svg">
<path d="M48.8166 39.7313L48.8166 39.7313L48.8108 39.735C46.511 41.2074 44.129 42.7034 41.3115 42.7034C38.4955 42.7034 36.0973 41.1922 33.8111 39.7342L33.8041 39.7298C33.2457 39.3735 32.519 38.9098 31.8428 38.535C31.5034 38.3469 31.1617 38.1726 30.8495 38.0434C30.5612 37.9242 30.209 37.8044 29.8801 37.8044C29.5507 37.8044 29.1993 37.9248 28.9123 38.0442C28.6015 38.1736 28.2614 38.348 27.9235 38.536C27.3271 38.8677 26.6866 39.2705 26.1571 39.6035C26.0873 39.6474 26.0194 39.6901 25.9538 39.7313L25.9538 39.7313L25.948 39.735C23.6482 41.2074 21.2662 42.7034 18.4488 42.7034C15.6328 42.7034 13.2346 41.1923 10.9485 39.7343C10.9484 39.7343 10.9484 39.7343 10.9484 39.7342L10.9413 39.7297C10.3829 39.3735 9.6562 38.9098 8.98 38.535C8.64064 38.3469 8.2989 38.1726 7.98671 38.0434C7.69841 37.9242 7.34626 37.8044 7.01738 37.8044C5.17856 37.8044 3.68506 36.3109 3.68506 34.4721C3.68506 32.6332 5.17856 31.1397 7.01738 31.1397C9.83339 31.1397 12.2315 32.6509 14.5177 34.1088C14.5177 34.1089 14.5177 34.1089 14.5178 34.1089L14.5248 34.1134C15.0833 34.4697 15.8099 34.9333 16.4861 35.3081C16.8255 35.4963 17.1672 35.6705 17.4794 35.7997C17.7677 35.919 18.1199 36.0388 18.4488 36.0388C18.7782 36.0388 19.1296 35.9184 19.4166 35.7989C19.7274 35.6696 20.0675 35.4951 20.4054 35.3072C21.0018 34.9755 21.6423 34.5726 22.1717 34.2396C22.2416 34.1957 22.3095 34.153 22.3751 34.1119L22.3751 34.1119L22.3809 34.1082C24.6807 32.6358 27.0627 31.1397 29.8801 31.1397C32.6961 31.1397 35.0943 32.6509 37.3804 34.1088C37.3805 34.1089 37.3805 34.1089 37.3805 34.1089L37.3875 34.1134C37.946 34.4697 38.6727 34.9333 39.3489 35.3081C39.6883 35.4963 40.03 35.6705 40.3422 35.7997C40.6305 35.919 40.9826 36.0388 41.3115 36.0388C41.6409 36.0388 41.9924 35.9184 42.2794 35.7989C42.5902 35.6696 42.9303 35.4951 43.2682 35.3072C43.8646 34.9755 44.5051 34.5726 45.0345 34.2396C45.1043 34.1957 45.1722 34.153 45.2378 34.1119L45.2379 34.1119L45.2436 34.1082C47.5434 32.6358 49.9254 31.1397 52.7429 31.1397C55.5589 31.1397 57.957 32.6509 60.2432 34.1088C60.2432 34.1089 60.2432 34.1089 60.2433 34.1089L60.2502 34.1133C60.8086 34.4696 61.5354 34.9333 62.2117 35.3081C62.551 35.4963 62.8928 35.6705 63.205 35.7997C63.4933 35.919 63.8454 36.0388 64.1743 36.0388C64.5037 36.0388 64.8551 35.9184 65.1421 35.7989C65.4529 35.6696 65.793 35.4951 66.131 35.3072C66.7273 34.9755 67.3678 34.5726 67.8973 34.2396C67.9671 34.1957 68.035 34.153 68.1006 34.1119L68.1064 34.1082C70.4062 32.6358 72.7882 31.1397 75.6057 31.1397C77.4445 31.1397 78.938 32.6332 78.938 34.4721C78.938 36.3109 77.4445 37.8044 75.6057 37.8044C75.2762 37.8044 74.9248 37.9248 74.6378 38.0442C74.327 38.1736 73.9869 38.348 73.649 38.536C73.0525 38.8677 72.412 39.2706 71.8825 39.6036C71.8127 39.6475 71.7449 39.6901 71.6793 39.7313L71.6735 39.735C69.3737 41.2074 66.9917 42.7034 64.1743 42.7034C61.3583 42.7034 58.9601 41.1923 56.674 39.7343C56.674 39.7343 56.6739 39.7343 56.6739 39.7342L56.6669 39.7298C56.1084 39.3735 55.3817 38.9098 54.7055 38.535C54.3662 38.3469 54.0244 38.1726 53.7122 38.0434C53.4239 37.9242 53.0718 37.8044 52.7429 37.8044C52.4135 37.8044 52.062 37.9248 51.7751 38.0442C51.4643 38.1736 51.1241 38.348 50.7862 38.536C50.1898 38.8677 49.5493 39.2705 49.0199 39.6035C48.9501 39.6474 48.8822 39.6901 48.8166 39.7313Z" fill="black" stroke="#F8A912" stroke-width="1.5"/>
<path d="M67.6619 137.218L67.6622 137.25H12.5737C10.8262 137.25 9.37538 135.903 9.25564 134.16L9.2552 134.154C9.07437 131.792 4.99448 76.429 4.66925 62.4596C4.5227 55.8318 3.58632 51.523 2.69782 47.4346L2.66017 47.2613L2.65982 47.2597C1.7155 42.9586 0.75 38.5501 0.75 32.006C0.75 25.5423 0.790705 18.588 0.83142 13.2307C0.86408 8.93311 0.896832 5.65499 0.908456 4.49155C0.91102 4.23493 0.912556 4.0812 0.912836 4.04209C0.941072 2.21335 2.42137 0.75 4.24521 0.75H76.584C78.3974 0.75 79.8765 2.20465 79.9165 4.00101C79.9173 4.0505 79.9204 4.20126 79.9253 4.44364C79.9488 5.59626 80.0145 8.82063 80.0798 13.077C80.1615 18.4007 80.2432 25.3651 80.2432 32.006C80.2432 38.4502 79.2794 42.7596 78.3187 46.976L78.3184 46.9777L78.313 47.0015C77.3322 51.3502 76.3906 55.5248 76.3238 62.4016C76.1634 76.361 72.0274 130.36 71.747 134.02L71.738 134.138C71.605 135.871 70.1498 137.218 68.4195 137.218H67.6619ZM15.6122 129.867L15.6427 130.585H16.3615H64.632H65.3276L65.3799 129.892C66.3583 116.926 69.5129 74.1922 69.6603 62.3551L69.6603 62.3538C69.7414 54.7595 70.8378 49.8731 71.8142 45.5284L71.8143 45.5281L71.8469 45.3827C72.7659 41.2877 73.5798 37.6615 73.5798 32.0063C73.5798 23.0024 73.4327 13.3949 73.3347 8.15093L73.321 7.41494H72.5849H8.2941H7.55097L7.54413 8.15804C7.49515 13.4822 7.41311 23.1999 7.41311 32.0063C7.41311 37.8388 8.22788 41.5787 9.16189 45.8344L9.16203 45.835C10.1055 50.1156 11.1545 54.9423 11.3328 62.2986C11.6112 74.0112 14.6655 116.831 15.612 129.863L15.6122 129.867Z" fill="black" stroke="#F8A912" stroke-width="1.5"/>
</svg>
