<svg width="28" height="29" viewBox="0 0 28 29" fill="none" xmlns="http://www.w3.org/2000/svg">
<g clip-path="url(#clip0_143_239)" filter="url(#filter0_d_143_239)">
<path d="M13.8675 2.21661C16.5039 2.21661 16.8161 2.22818 17.853 2.27443C18.8166 2.31683 19.337 2.47872 19.6839 2.61362C20.1426 2.79093 20.474 3.00678 20.8171 3.34983C21.164 3.69673 21.376 4.02436 21.5533 4.48305C21.6882 4.82995 21.8501 5.35416 21.8925 6.31392C21.9387 7.35463 21.9503 7.66684 21.9503 10.2995C21.9503 12.9359 21.9387 13.2481 21.8925 14.285C21.8501 15.2486 21.6882 15.769 21.5533 16.1159C21.376 16.5745 21.1601 16.906 20.8171 17.2491C20.4702 17.596 20.1426 17.808 19.6839 17.9853C19.337 18.1202 18.8128 18.2821 17.853 18.3245C16.8123 18.3707 16.5001 18.3823 13.8675 18.3823C11.231 18.3823 10.9188 18.3707 9.88193 18.3245C8.91831 18.2821 8.39796 18.1202 8.05106 17.9853C7.59237 17.808 7.26089 17.5921 6.91784 17.2491C6.57094 16.9022 6.35894 16.5745 6.18163 16.1159C6.04673 15.769 5.88484 15.2448 5.84244 14.285C5.79619 13.2443 5.78462 12.9321 5.78462 10.2995C5.78462 7.66299 5.79619 7.35078 5.84244 6.31392C5.88484 5.3503 6.04673 4.82995 6.18163 4.48305C6.35894 4.02436 6.57479 3.69288 6.91784 3.34983C7.26474 3.00293 7.59237 2.79093 8.05106 2.61362C8.39796 2.47872 8.92217 2.31683 9.88193 2.27443C10.9188 2.22818 11.231 2.21661 13.8675 2.21661ZM13.8675 0.439697C11.1886 0.439697 10.8533 0.451261 9.80099 0.497514C8.75257 0.543768 8.03178 0.713365 7.40736 0.956197C6.75595 1.21059 6.20476 1.54593 5.65743 2.09712C5.10624 2.64446 4.7709 3.19565 4.5165 3.8432C4.27367 4.47148 4.10407 5.18841 4.05782 6.23683C4.01156 7.29296 4 7.6283 4 10.3072C4 12.986 4.01156 13.3214 4.05782 14.3736C4.10407 15.4221 4.27367 16.1428 4.5165 16.7673C4.7709 17.4187 5.10624 17.9699 5.65743 18.5172C6.20476 19.0645 6.75595 19.4037 7.4035 19.6543C8.03179 19.8971 8.74872 20.0667 9.79714 20.113C10.8494 20.1592 11.1847 20.1708 13.8636 20.1708C16.5425 20.1708 16.8778 20.1592 17.9301 20.113C18.9785 20.0667 19.6993 19.8971 20.3237 19.6543C20.9713 19.4037 21.5225 19.0645 22.0698 18.5172C22.6171 17.9699 22.9563 17.4187 23.2069 16.7711C23.4497 16.1428 23.6193 15.4259 23.6656 14.3775C23.7118 13.3252 23.7234 12.9899 23.7234 10.311C23.7234 7.63215 23.7118 7.29681 23.6656 6.24454C23.6193 5.19612 23.4497 4.47534 23.2069 3.85091C22.964 3.19565 22.6287 2.64446 22.0775 2.09712C21.5302 1.54979 20.979 1.21059 20.3314 0.960052C19.7031 0.71722 18.9862 0.547623 17.9378 0.501369C16.8817 0.451261 16.5463 0.439697 13.8675 0.439697Z" fill="black"/>
<path d="M13.8675 5.23853C11.0691 5.23853 8.79883 7.50881 8.79883 10.3072C8.79883 13.1055 11.0691 15.3758 13.8675 15.3758C16.6658 15.3758 18.9361 13.1055 18.9361 10.3072C18.9361 7.50881 16.6658 5.23853 13.8675 5.23853ZM13.8675 13.595C12.052 13.595 10.5796 12.1226 10.5796 10.3072C10.5796 8.49171 12.052 7.01929 13.8675 7.01929C15.6829 7.01929 17.1553 8.49171 17.1553 10.3072C17.1553 12.1226 15.6829 13.595 13.8675 13.595Z" fill="black"/>
<path d="M20.3198 5.03806C20.3198 5.69332 19.7879 6.22139 19.1365 6.22139C18.4812 6.22139 17.9531 5.68947 17.9531 5.03806C17.9531 4.3828 18.485 3.85474 19.1365 3.85474C19.7879 3.85474 20.3198 4.38666 20.3198 5.03806Z" fill="black"/>
</g>
<defs>
<filter id="filter0_d_143_239" x="0" y="0.439697" width="27.7349" height="27.735" filterUnits="userSpaceOnUse" color-interpolation-filters="sRGB">
<feFlood flood-opacity="0" result="BackgroundImageFix"/>
<feColorMatrix in="SourceAlpha" type="matrix" values="0 0 0 0 0 0 0 0 0 0 0 0 0 0 0 0 0 0 127 0" result="hardAlpha"/>
<feOffset dy="4"/>
<feGaussianBlur stdDeviation="2"/>
<feComposite in2="hardAlpha" operator="out"/>
<feColorMatrix type="matrix" values="0 0 0 0 0 0 0 0 0 0 0 0 0 0 0 0 0 0 0.25 0"/>
<feBlend mode="normal" in2="BackgroundImageFix" result="effect1_dropShadow_143_239"/>
<feBlend mode="normal" in="SourceGraphic" in2="effect1_dropShadow_143_239" result="shape"/>
</filter>
<clipPath id="clip0_143_239">
<rect width="19.7349" height="19.7349" fill="white" transform="translate(4 0.439697)"/>
</clipPath>
</defs>
</svg>
