<svg width="25" height="25" viewBox="0 0 25 25" fill="none" xmlns="http://www.w3.org/2000/svg">
<path d="M12.5001 9.99992C11.174 9.99992 9.90228 9.4732 8.96456 8.53548C8.02683 7.59776 7.50011 6.32607 7.50011 4.99996C7.50011 3.67384 8.02683 2.40216 8.96456 1.46444C9.90228 0.526717 11.174 0 12.5001 0C13.8262 0 15.0979 0.526717 16.0357 1.46444C16.9734 2.40216 17.5001 3.67384 17.5001 4.99996C17.4986 6.32564 16.9713 7.59653 16.034 8.53382C15.0967 9.47111 13.8258 9.99847 12.5001 9.99992ZM12.5001 2.49987C11.8372 2.49987 11.2012 2.76334 10.7322 3.23209C10.2635 3.70105 10 4.33701 10 4.99996C10 5.66291 10.2635 6.29886 10.7322 6.76782C11.2012 7.23658 11.8372 7.50004 12.5001 7.50004C13.1631 7.50004 13.799 7.23658 14.268 6.76782C14.7367 6.29886 15.0002 5.66291 15.0002 4.99996C14.9996 4.33722 14.7359 3.7017 14.2671 3.23295C13.7984 2.76419 13.1628 2.50051 12.5001 2.49987ZM23.7503 25H1.24995C0.918468 25 0.600384 24.8684 0.366005 24.634C0.131627 24.3996 0 24.0816 0 23.7501C0 16.8013 6.48866 12.5 12.5 12.5C18.5113 12.5 25 16.8012 25 23.7501C25 24.0815 24.8684 24.3996 24.634 24.634C24.3996 24.8684 24.0818 25 23.7503 25ZM2.59568 22.5001H22.4045C21.6771 17.8339 16.9273 15.0001 12.5001 15.0001C8.0729 15.0001 3.32319 17.8339 2.59568 22.5001Z" fill="black"/>
</svg>
