<svg width="28" height="28" viewBox="0 0 28 28" fill="none" xmlns="http://www.w3.org/2000/svg">
<path d="M10.0154 17.9848C14.4171 17.9848 17.9853 14.4166 17.9853 10.0149C17.9853 5.61335 14.4171 2.045 10.0154 2.045C5.61386 2.045 2.04551 5.6134 2.04551 10.0149C2.04551 14.4166 5.6139 17.9848 10.0154 17.9848ZM16.7487 16.0093L26.8469 26.1079C27.051 26.3119 27.051 26.6429 26.8469 26.8469C26.6429 27.051 26.3119 27.051 26.1079 26.8469L16.0093 16.7487C14.4162 18.1679 12.3163 19.0303 10.0151 19.0303C5.03627 19.0303 1 14.9942 1 10.0151C1 5.03628 5.03627 1 10.0151 1C14.994 1 19.0302 5.03628 19.0302 10.0151C19.0302 12.3165 18.1679 14.4165 16.7487 16.0094L16.7487 16.0093Z" fill="black" stroke="black"/>
</svg>
