<svg width="16" height="16" viewBox="0 0 16 16" fill="none" xmlns="http://www.w3.org/2000/svg">
<path d="M8.00007 6.39995C7.15135 6.39995 6.33746 6.06285 5.73732 5.46271C5.13717 4.86257 4.80007 4.04869 4.80007 3.19997C4.80007 2.35126 5.13717 1.53738 5.73732 0.93724C6.33746 0.337099 7.15135 0 8.00007 0C8.84879 0 9.66268 0.337099 10.2628 0.93724C10.863 1.53738 11.2001 2.35126 11.2001 3.19997C11.1991 4.04841 10.8616 4.86178 10.2618 5.46164C9.66189 6.06151 8.84852 6.39902 8.00007 6.39995ZM8.00007 1.59992C7.57578 1.59992 7.16877 1.76854 6.86862 2.06854C6.56862 2.36867 6.4 2.77568 6.4 3.19997C6.4 3.62426 6.56862 4.03127 6.86862 4.33141C7.16876 4.63141 7.57578 4.80003 8.00007 4.80003C8.42436 4.80003 8.83137 4.63141 9.13151 4.33141C9.43152 4.03127 9.60014 3.62426 9.60014 3.19997C9.59974 2.77582 9.43098 2.36909 9.13097 2.06909C8.83095 1.76908 8.42422 1.60033 8.00007 1.59992ZM15.2002 16H0.799966C0.58782 16 0.384246 15.9158 0.234243 15.7658C0.0842412 15.6158 0 15.4122 0 15.2C0 10.7528 4.15274 8 8 8C11.8473 8 16 10.7528 16 15.2C16 15.4122 15.9158 15.6158 15.7658 15.7658C15.6158 15.9158 15.4122 16 15.2 16H15.2002ZM1.66124 14.4001H14.3389C13.8734 11.4137 10.8335 9.60005 8.00007 9.60005C5.16666 9.60005 2.12684 11.4137 1.66124 14.4001Z" fill="black"/>
</svg>
