<svg width="155" height="138" viewBox="0 0 155 138" fill="none" xmlns="http://www.w3.org/2000/svg">
<path fill-rule="evenodd" clip-rule="evenodd" d="M58.5092 5.86826C59.7945 18.476 68.4277 26.1369 77.4829 26.2445H77.5296C86.5791 26.1383 95.2086 18.4787 96.5068 5.87902L109.502 10.024C117.173 12.4648 120.532 15.8825 126.503 21.4027L149.174 42.3296L132.93 62.2224L122.342 52.4697V39.6868C122.518 36.2375 117.253 36.2375 117.428 39.6868V133.09L37.5796 133.069V39.6867C37.6076 38.2942 36.474 37.1584 35.0825 37.1876C33.7284 37.1969 32.6321 38.3199 32.6613 39.6867V52.4696L22.0862 62.2035L5.84066 42.3236L28.5 21.4035C34.482 15.8833 37.8386 12.4564 45.512 10.0156L58.5092 5.86826ZM63.3937 5.56011C68.0777 6.55813 72.6555 7.02388 77.5223 6.99588C82.3766 7.03323 86.9356 6.56981 91.6104 5.58112C90.5269 16.0609 83.8136 21.2309 77.5038 21.3184C71.194 21.2309 64.4784 16.0575 63.3937 5.56011ZM94.2815 0.000484223C93.8278 -0.00885404 93.3822 0.117211 92.9869 0.349511C87.8388 1.66619 82.9914 2.1121 77.4352 2.10278C71.8822 2.10278 66.9476 1.63586 61.6527 0.252632C61.3541 0.135905 61.0438 0.0763743 60.7336 0.086878C60.3674 0.0962163 59.9977 0.183763 59.6711 0.349518L44.0343 5.32674C35.4514 8.05585 31.0871 12.3177 25.1762 17.7794L0.800031 40.2776C-0.15867 41.1612 -0.275326 42.6413 0.556269 43.6486L19.9205 67.3445C20.8104 68.4511 22.4549 68.5736 23.4998 67.6071L32.6626 59.1606V135.531C32.6533 136.898 33.7648 138.009 35.1293 138H119.883C121.238 138 122.341 136.897 122.341 135.54L122.342 59.1549L131.514 67.6096C132.56 68.5761 134.195 68.4524 135.096 67.3469L154.456 43.651C155.267 42.6413 155.161 41.1729 154.205 40.2893L129.843 17.7923C123.92 12.3411 119.565 8.05835 110.982 5.32919L95.6568 0.45805C95.2497 0.169732 94.7739 0.0133102 94.2817 0.00165607L94.2815 0.000484223Z" fill="white"/>
</svg>
