<svg width="121" height="121" viewBox="0 0 121 121" fill="none" xmlns="http://www.w3.org/2000/svg">
<path d="M6.04928 20.1668H29.3227C27.2241 17.8386 26.1131 14.7866 26.224 11.6545C26.3338 8.52322 27.6572 5.55678 29.9134 3.38155C32.1696 1.20734 35.1828 -0.00528296 38.3168 1.79695e-05H40.3335C44.5864 0.00632009 48.7486 1.23433 52.3235 3.53828C55.8986 5.84213 58.7372 9.12546 60.5001 12.9958C62.2628 9.12546 65.1015 5.84211 68.6767 3.53828C72.2518 1.23442 76.4137 0.00647128 80.6667 1.79695e-05H82.6834C85.8174 -0.00538391 88.8297 1.20732 91.0858 3.38247C93.3429 5.55669 94.6653 8.52322 94.7753 11.6554C94.886 14.7866 93.7741 17.8386 91.6765 20.1668H114.95C116.554 20.1686 118.092 20.8069 119.226 21.9404C120.36 23.0748 120.998 24.6125 121 26.2169V42.3502C120.998 43.9545 120.36 45.4922 119.226 46.6266C118.092 47.7601 116.554 48.3984 114.95 48.4002H112.933V114.95C112.931 116.554 112.293 118.092 111.16 119.226C110.025 120.36 108.488 120.998 106.883 121H14.1168C12.5125 120.998 10.9747 120.36 9.84031 119.226C8.70683 118.092 8.06853 116.554 8.06673 114.95V48.4002H6.05006C4.44575 48.3984 2.90799 47.7601 1.77358 46.6266C0.640106 45.4922 0.00180054 43.9545 0 42.3502V26.2169C0.00180054 24.6126 0.640106 23.0748 1.77358 21.9404C2.90797 20.8069 4.44572 20.1686 6.05006 20.1668H6.04928ZM40.3325 4.03357H38.3159C35.434 4.03357 32.7709 5.57127 31.3297 8.06688C29.8892 10.5625 29.8892 13.6379 31.3297 16.1335C32.7711 18.6291 35.4342 20.1668 38.3159 20.1668H58.3709C57.8695 15.732 55.7539 11.6374 52.4272 8.66197C49.1005 5.68653 44.7955 4.03887 40.3325 4.03357ZM90.7491 12.1002C90.7464 9.96111 89.8956 7.91108 88.3839 6.3987C86.8714 4.88711 84.8215 4.03633 82.6824 4.03357H80.6658C76.2031 4.03897 71.8978 5.68651 68.5711 8.66197C65.2444 11.6374 63.1289 15.732 62.6274 20.1668H82.6824C84.8215 20.1641 86.8716 19.3134 88.3839 17.8017C89.8955 16.2892 90.7463 14.2392 90.7491 12.1002ZM116.966 42.3501V26.2168C116.964 25.1041 116.062 24.202 114.949 24.2002H74.6158V44.3667H114.949C116.062 44.3649 116.964 43.4628 116.966 42.3501ZM108.899 114.95V48.4001H74.6158V116.966H106.882C107.995 116.965 108.897 116.063 108.899 114.95ZM70.5825 24.2002H50.4158V116.966H70.5825V24.2002ZM12.0993 114.95C12.1011 116.063 13.0032 116.965 14.1159 116.966H46.3825V48.4001H12.0993V114.95ZM4.03262 42.3501C4.03442 43.4628 4.93652 44.3649 6.04928 44.3667H46.3825V24.2002H6.04928C4.93652 24.202 4.03442 25.1041 4.03262 26.2168V42.3501Z" fill="white"/>
</svg>
