<svg width="20" height="21" viewBox="0 0 20 21" fill="none" xmlns="http://www.w3.org/2000/svg">
<g clip-path="url(#clip0_143_240)">
<path d="M19.5506 6.36016C19.5506 6.36016 19.3578 4.99953 18.7642 4.40209C18.0126 3.61578 17.1723 3.61192 16.7869 3.56567C14.0271 3.36523 9.88353 3.36523 9.88353 3.36523H9.87582C9.87582 3.36523 5.73225 3.36523 2.97245 3.56567C2.587 3.61192 1.74672 3.61578 0.995099 4.40209C0.401509 4.99953 0.21264 6.36016 0.21264 6.36016C0.21264 6.36016 0.012207 7.95977 0.012207 9.55553V11.0511C0.012207 12.6468 0.208785 14.2464 0.208785 14.2464C0.208785 14.2464 0.401509 15.6071 0.991245 16.2045C1.74287 16.9908 2.72961 16.9638 3.16903 17.0486C4.74936 17.199 9.87967 17.2452 9.87967 17.2452C9.87967 17.2452 14.0271 17.2375 16.7869 17.0409C17.1723 16.9947 18.0126 16.9908 18.7642 16.2045C19.3578 15.6071 19.5506 14.2464 19.5506 14.2464C19.5506 14.2464 19.7471 12.6507 19.7471 11.0511V9.55553C19.7471 7.95977 19.5506 6.36016 19.5506 6.36016ZM7.84065 12.8665V7.31993L13.1714 10.1029L7.84065 12.8665Z" fill="black"/>
</g>
<defs>
<clipPath id="clip0_143_240">
<rect width="19.7349" height="19.7349" fill="white" transform="translate(0.012207 0.439697)"/>
</clipPath>
</defs>
</svg>
